<?xml version="1.0" standalone="no"?>
<!DOCTYPE svg PUBLIC "-//W3C//DTD SVG 20010904//EN"
 "http://www.w3.org/TR/2001/REC-SVG-20010904/DTD/svg10.dtd">
<svg version="1.0" xmlns="http://www.w3.org/2000/svg"
 width="512.000000pt" height="512.000000pt" viewBox="0 0 512.000000 512.000000"
 preserveAspectRatio="xMidYMid meet">

<g transform="translate(0.000000,512.000000) scale(0.100000,-0.100000)"
fill="#000000" stroke="none">
<path d="M2393 5110 c-508 -72 -929 -443 -1058 -933 -42 -160 -45 -225 -45
-1024 l0 -763 -281 0 c-272 0 -283 -1 -321 -22 -21 -12 -49 -38 -61 -58 -20
-32 -22 -48 -22 -195 0 -151 1 -162 24 -198 24 -38 84 -77 121 -77 20 0 20 -4
20 -424 0 -244 4 -446 10 -477 18 -93 54 -147 245 -357 l183 -204 4 -131 c3
-145 14 -179 71 -221 l28 -21 1249 0 1249 0 28 21 c57 42 68 76 71 221 l4 131
183 204 c191 210 227 264 245 357 6 31 10 233 10 477 0 420 0 424 20 424 37 0
97 39 121 77 23 36 24 47 24 198 0 147 -2 163 -22 195 -12 20 -40 46 -61 58
-38 21 -49 22 -321 22 l-281 0 0 763 c0 473 -4 795 -11 847 -66 539 -458 970
-989 1091 -98 22 -340 33 -437 19z m353 -155 c234 -41 436 -145 604 -313 146
-148 241 -313 298 -520 l27 -97 3 -817 3 -818 -44 0 c-44 0 -45 1 -67 52 -12
28 -33 94 -46 147 l-24 96 2 622 c2 343 1 623 -2 623 -3 0 -6 21 -7 46 -3 63
-37 183 -77 269 -116 252 -336 437 -612 517 -68 20 -102 23 -244 23 -142 0
-176 -3 -244 -23 -329 -95 -567 -331 -668 -663 -22 -73 -22 -85 -28 -769 -6
-685 -6 -696 -29 -770 -12 -41 -31 -96 -43 -122 -20 -47 -21 -48 -65 -48 l-44
0 3 818 3 817 27 97 c106 385 377 674 748 796 153 51 361 65 526 37z m14 -336
c274 -69 495 -291 572 -574 21 -77 21 -99 22 -650 l1 -570 -55 3 c-164 9 -369
-75 -529 -215 l-60 -53 -154 0 c-132 0 -157 2 -168 17 -35 42 -171 140 -244
174 -106 51 -181 70 -290 74 l-90 3 -3 499 c-2 292 1 538 7 595 14 123 49 233
106 330 180 308 535 455 885 367z m-805 -1954 c84 -22 169 -64 243 -120 l62
-47 -28 -32 c-25 -29 -39 -55 -56 -108 -5 -16 -10 -16 -78 3 -106 30 -189 72
-253 131 -82 75 -106 135 -69 172 20 21 101 21 179 1z m1389 -1 c45 -44 -7
-137 -121 -215 -53 -37 -118 -65 -206 -89 -64 -18 -68 -18 -73 -2 -17 53 -31
79 -56 108 l-28 32 62 47 c110 84 239 133 350 134 39 1 61 -4 72 -15z m-1514
-346 c67 -42 167 -83 263 -108 l72 -18 5 -158 c3 -103 10 -167 18 -182 17 -31
5 -45 -68 -82 -99 -50 -164 -64 -295 -64 -138 -1 -168 9 -239 74 -62 57 -88
116 -88 194 0 72 19 123 82 216 23 33 60 99 82 146 l41 85 36 -34 c20 -19 61
-50 91 -69z m1615 45 c14 -32 53 -100 85 -153 78 -126 92 -163 92 -235 0 -76
-28 -140 -88 -195 -71 -65 -101 -75 -239 -74 -131 0 -196 14 -295 64 -73 37
-85 51 -68 82 8 15 15 79 18 182 l5 158 72 18 c145 37 300 116 362 184 14 14
26 26 27 26 1 0 14 -26 29 -57z m-681 18 c39 -36 46 -79 45 -261 0 -188 -8
-224 -58 -257 -32 -22 -44 -23 -191 -23 -147 0 -159 1 -191 23 -53 36 -61 74
-57 284 3 166 5 184 24 210 37 50 55 54 236 51 161 -3 167 -4 192 -27z m-1326
-138 c-2 -5 -18 -36 -35 -70 -18 -34 -38 -91 -45 -128 l-13 -65 -295 2 -295 3
-3 124 c-2 93 1 126 10 133 16 10 681 11 676 1z m2920 -1 c9 -7 12 -40 10
-133 l-3 -124 -295 -3 -295 -2 -13 65 c-7 37 -27 94 -45 128 -17 34 -33 65
-35 70 -5 10 660 9 676 -1z m-2957 -463 c58 -107 167 -188 286 -211 32 -6 64
-12 71 -14 9 -3 5 -18 -13 -55 -55 -107 -65 -179 -65 -448 0 -273 1 -280 65
-307 52 -21 86 -4 195 98 56 51 105 93 110 93 4 0 54 -42 109 -93 55 -51 113
-97 128 -101 36 -10 85 3 109 30 18 20 19 45 24 473 l5 451 135 0 135 0 5
-451 c5 -428 6 -453 24 -473 24 -27 73 -40 109 -30 15 4 73 50 128 101 55 51
105 93 109 93 5 0 54 -42 110 -93 109 -102 143 -119 195 -98 64 27 65 34 65
307 0 269 -10 341 -65 448 -18 37 -22 52 -13 55 7 2 39 8 72 14 32 7 78 21
103 33 65 32 146 110 182 178 l32 61 225 0 225 0 -3 -447 c-3 -426 -4 -450
-23 -486 -11 -21 -101 -128 -200 -237 l-179 -200 -1236 0 -1235 0 -180 200
c-99 110 -189 217 -200 237 -19 36 -20 60 -23 486 l-3 447 225 0 225 0 32 -61z
m874 -837 c-3 -3 -40 29 -84 71 -127 124 -151 124 -279 4 l-87 -82 -3 145 c-4
211 26 338 105 445 27 37 37 42 109 58 47 10 112 35 159 60 l80 43 3 -370 c1
-203 0 -371 -3 -374z m605 728 c48 -34 141 -73 215 -90 69 -16 71 -18 110 -76
72 -106 97 -223 93 -434 l-3 -135 -87 82 c-128 120 -152 120 -278 -2 -42 -41
-79 -75 -83 -75 -4 0 -7 169 -7 375 0 206 3 375 6 375 3 0 19 -9 34 -20z m880
-1430 l0 -90 -1200 0 -1200 0 0 90 0 90 1200 0 1200 0 0 -90z"/>
</g>
</svg>
