<svg width="30" height="30" viewBox="0 0 30 30" fill="none" xmlns="http://www.w3.org/2000/svg">
<path d="M13.125 26.25C14.1605 26.25 15 25.4105 15 24.375C15 23.3395 14.1605 22.5 13.125 22.5C12.0895 22.5 11.25 23.3395 11.25 24.375C11.25 25.4105 12.0895 26.25 13.125 26.25Z" fill="black"/>
<path d="M21.875 26.25C22.9105 26.25 23.75 25.4105 23.75 24.375C23.75 23.3395 22.9105 22.5 21.875 22.5C20.8395 22.5 20 23.3395 20 24.375C20 25.4105 20.8395 26.25 21.875 26.25Z" fill="black"/>
<path d="M26.7775 8.53876C26.6625 8.3726 26.509 8.23678 26.33 8.14295C26.1511 8.04912 25.9521 8.00007 25.75 8.00001H8.66625L7.22375 4.53751C7.03461 4.08153 6.71434 3.69199 6.30353 3.41827C5.89273 3.14455 5.40989 2.99897 4.91625 3.00001H2V5.50001H4.91625L10.8462 19.7313C10.9412 19.9589 11.1015 20.1534 11.3068 20.2902C11.5121 20.427 11.7533 20.5 12 20.5H22C22.5213 20.5 22.9875 20.1763 23.1712 19.69L26.9212 9.69001C26.9921 9.50078 27.0161 9.2972 26.991 9.09669C26.966 8.89619 26.8927 8.70474 26.7775 8.53876ZM21.1337 18H12.8337L9.70875 10.5H23.9462L21.1337 18Z" fill="black"/>
</svg>
