<svg width="30" height="30" viewBox="0 0 30 30" fill="none" xmlns="http://www.w3.org/2000/svg">
<path d="M17.9464 24.375H19.5536C19.7667 24.375 19.9711 24.3009 20.1218 24.1691C20.2725 24.0372 20.3571 23.8584 20.3571 23.6719V11.0156C20.3571 10.8291 20.2725 10.6503 20.1218 10.5184C19.9711 10.3866 19.7667 10.3125 19.5536 10.3125H17.9464C17.7333 10.3125 17.5289 10.3866 17.3782 10.5184C17.2275 10.6503 17.1429 10.8291 17.1429 11.0156V23.6719C17.1429 23.8584 17.2275 24.0372 17.3782 24.1691C17.5289 24.3009 17.7333 24.375 17.9464 24.375ZM28.9286 4.6875H23.41L21.1333 1.36523C20.8475 0.948642 20.4433 0.603921 19.9601 0.364662C19.4768 0.125404 18.9309 -0.000231058 18.3757 3.19011e-07H11.6243C11.0693 -2.86388e-05 10.5237 0.125702 10.0407 0.364951C9.55767 0.6042 9.15369 0.948812 8.86808 1.36523L6.58996 4.6875H1.07143C0.787268 4.6875 0.514746 4.78627 0.313814 4.96209C0.112882 5.1379 0 5.37636 0 5.625L0 6.5625C0 6.81114 0.112882 7.0496 0.313814 7.22541C0.514746 7.40123 0.787268 7.5 1.07143 7.5H2.14286V27.1875C2.14286 27.9334 2.4815 28.6488 3.0843 29.1762C3.6871 29.7037 4.50466 30 5.35714 30H24.6429C25.4953 30 26.3129 29.7037 26.9157 29.1762C27.5185 28.6488 27.8571 27.9334 27.8571 27.1875V7.5H28.9286C29.2127 7.5 29.4853 7.40123 29.6862 7.22541C29.8871 7.0496 30 6.81114 30 6.5625V5.625C30 5.37636 29.8871 5.1379 29.6862 4.96209C29.4853 4.78627 29.2127 4.6875 28.9286 4.6875ZM11.5071 2.98301C11.543 2.93085 11.5936 2.88773 11.6542 2.85784C11.7147 2.82795 11.7831 2.81233 11.8527 2.8125H18.1473C18.2167 2.81243 18.285 2.8281 18.3454 2.85798C18.4059 2.88787 18.4564 2.93094 18.4922 2.98301L19.6614 4.6875H10.3386L11.5071 2.98301ZM24.6429 27.1875H5.35714V7.5H24.6429V27.1875ZM10.4464 24.375H12.0536C12.2667 24.375 12.4711 24.3009 12.6218 24.1691C12.7725 24.0372 12.8571 23.8584 12.8571 23.6719V11.0156C12.8571 10.8291 12.7725 10.6503 12.6218 10.5184C12.4711 10.3866 12.2667 10.3125 12.0536 10.3125H10.4464C10.2333 10.3125 10.0289 10.3866 9.87822 10.5184C9.72752 10.6503 9.64286 10.8291 9.64286 11.0156V23.6719C9.64286 23.8584 9.72752 24.0372 9.87822 24.1691C10.0289 24.3009 10.2333 24.375 10.4464 24.375Z" fill="white"/>
</svg>
